<?xml version="1.0" encoding="UTF-8" standalone="no"?>
<!-- Created with Inkscape (http://www.inkscape.org/) -->

<svg
   xmlns:dc="http://purl.org/dc/elements/1.1/"
   xmlns:cc="http://creativecommons.org/ns#"
   xmlns:rdf="http://www.w3.org/1999/02/22-rdf-syntax-ns#"
   xmlns:svg="http://www.w3.org/2000/svg"
   xmlns="http://www.w3.org/2000/svg"
   xmlns:sodipodi="http://sodipodi.sourceforge.net/DTD/sodipodi-0.dtd"
   xmlns:inkscape="http://www.inkscape.org/namespaces/inkscape"
   width="550mm"
   height="250mm"
   viewBox="0 0 550 250"
   version="1.1"
   id="svg8"
   inkscape:version="0.92.3 (2405546, 2018-03-11)"
   sodipodi:docname="dcs_logo.svg"
   inkscape:export-filename="/home/boarnoah/Documents/School/Other/MouseFYDP/dcs_logo_header.png"
   inkscape:export-xdpi="25.4"
   inkscape:export-ydpi="25.4">
  <defs
     id="defs2" />
  <sodipodi:namedview
     id="base"
     pagecolor="#ffffff"
     bordercolor="#666666"
     borderopacity="1.0"
     inkscape:pageopacity="0.0"
     inkscape:pageshadow="2"
     inkscape:zoom="0.40371481"
     inkscape:cx="807.65003"
     inkscape:cy="600.69347"
     inkscape:document-units="mm"
     inkscape:current-layer="layer1"
     showgrid="true"
     inkscape:window-width="1920"
     inkscape:window-height="1023"
     inkscape:window-x="0"
     inkscape:window-y="0"
     inkscape:window-maximized="1">
    <inkscape:grid
       type="xygrid"
       id="grid3740" />
  </sodipodi:namedview>
  <metadata
     id="metadata5">
    <rdf:RDF>
      <cc:Work
         rdf:about="">
        <dc:format>image/svg+xml</dc:format>
        <dc:type
           rdf:resource="http://purl.org/dc/dcmitype/StillImage" />
        <dc:title></dc:title>
      </cc:Work>
    </rdf:RDF>
  </metadata>
  <g
     inkscape:groupmode="layer"
     id="layer2"
     inkscape:label="Layer 2"
     style="display:inline"
     transform="translate(0,-300)">
    <path
       inkscape:connector-curvature="0"
       id="path26-3"
       style="font-style:normal;font-variant:normal;font-weight:bold;font-stretch:normal;font-size:192px;line-height:1.25;font-family:Chandas;-inkscape-font-specification:'Chandas Bold';letter-spacing:0px;word-spacing:0px;fill:#ffe6d5;fill-opacity:1;stroke:none;stroke-width:0.80582494"
       d="m 341.3125,378.02096 v 14.93543 c -5.61673,-4.41488 -11.55751,-7.70255 -17.82232,-9.86302 -6.15681,-2.25441 -14.86234,-5.49828 -21.88326,-5.49828 -13.82581,0 -24.84332,4.19258 -32.18828,11.51939 -7.34497,7.32682 -11.01745,19.52882 -11.01745,33.43099 0,13.90217 2.51267,25.34785 11.01745,33.43098 8.59432,8.16823 20.47914,9.40273 34.30495,9.40273 7.02092,0 13.60978,-1.08024 19.76659,-3.24071 6.26481,-2.16047 12.20559,-8.96495 17.82232,-13.47376 v 15.08125 c -5.83275,3.3816 -12.148,10.48002 -18.52083,12.17083 -6.37285,1.6908 -13.56376,5.03496 -20.69268,5.03496 -18.36241,0 -29.87356,-0.88657 -40.43152,-10.56851 -15.60497,-14.3102 -18.05321,-30.60675 -18.05321,-47.51479 0,-16.90805 1.23129,-39.14108 11.70866,-48.81624 10.47737,-9.76909 27.9076,-14.37671 46.27001,-14.37671 7.23694,0 14.04183,0.84541 20.41466,2.53621 6.48085,1.59688 13.68818,12.42764 19.30491,15.80925 z"
       sodipodi:nodetypes="cccsssasccccssscscc" />
    <path
       style="fill:#f7966c;fill-opacity:1;stroke:none;stroke-width:0.27549854px;stroke-linecap:butt;stroke-linejoin:miter;stroke-opacity:1"
       d="m 341.31251,465.33348 v -95.25 l -39.6318,-15.875 -51.63553,15.875 -17.21185,47.625 17.21185,52.91665 34.42369,15.875 51.63554,-5.29166 z"
       id="path3761"
       inkscape:connector-curvature="0"
       sodipodi:nodetypes="ccccccccc" />
    <path
       inkscape:connector-curvature="0"
       id="path26-6"
       style="font-style:normal;font-variant:normal;font-weight:bold;font-stretch:normal;font-size:192px;line-height:1.25;font-family:Chandas;-inkscape-font-specification:'Chandas Bold';letter-spacing:0px;word-spacing:0px;fill:#df684a;fill-opacity:1;stroke:none;stroke-width:0.84887153"
       d="m 341.3125,370.61262 v 16.66875 c -5.51766,-4.98712 -14.88824,-8.49837 -21.04256,-10.93887 -6.04821,-2.54662 -12.52086,-4.87826 -19.41793,-4.87826 -13.58195,0 -25.03895,4.13825 -32.25436,12.41474 -7.21541,8.2765 -10.82311,21.32515 -10.82311,37.02927 0,15.70413 3.6077,28.75278 10.82311,37.02927 7.21541,8.2765 18.67241,12.41474 32.25436,12.41474 6.89707,0 13.36972,-2.27858 19.41793,-4.71909 6.15432,-2.44051 15.5249,-6.78613 21.04256,-11.87936 v 16.87131 c -5.72988,3.81993 -15.25962,7.26363 -21.52005,9.17359 -6.26043,1.90996 -12.89224,2.86494 -19.89543,2.86494 -18.03851,0 -32.20406,-5.51766 -42.49663,-16.55299 -10.29257,-11.03532 -15.43885,-26.10279 -15.43885,-45.20241 0,-19.09961 5.14628,-34.11402 15.43885,-45.04325 10.29257,-11.03533 24.45812,-16.55299 42.49663,-16.55299 7.1093,0 13.79416,0.95498 20.05459,2.86494 6.36654,1.80386 15.84323,4.61575 21.36089,8.43567 z"
       sodipodi:nodetypes="cccssssscccsssscscc" />
  </g>
  <g
     inkscape:label="Layer 1"
     inkscape:groupmode="layer"
     id="layer1"
     transform="translate(0,-47)"
     style="display:inline">
    <path
       inkscape:connector-curvature="0"
       id="path24"
       style="font-style:normal;font-variant:normal;font-weight:bold;font-stretch:normal;font-size:192px;line-height:1.25;font-family:Chandas;-inkscape-font-specification:'Chandas Bold';letter-spacing:0px;word-spacing:0px;fill:#d64737;fill-opacity:1;stroke:none;stroke-width:1.05833328"
       d="m 87.930252,110.52753 v 115.09381 h 24.209378 q 30.55937,0 44.84687,-13.89063 14.2875,-13.89063 14.2875,-43.85471 0,-29.76564 -14.2875,-43.45784 -14.2875,-13.89063 -44.84687,-13.89063 z M 67.689627,93.858777 h 41.275003 q 43.06093,0 63.10312,18.057813 20.24062,17.85939 20.24062,55.95941 0,38.29846 -20.24062,56.35628 -20.24063,17.85938 -63.10312,17.85938 H 67.689627 Z" />
    <path
       inkscape:connector-curvature="0"
       id="path26"
       style="font-style:normal;font-variant:normal;font-weight:bold;font-stretch:normal;font-size:192px;line-height:1.25;font-family:Chandas;-inkscape-font-specification:'Chandas Bold';letter-spacing:0px;word-spacing:0px;fill:#d64737;fill-opacity:1;stroke:none;stroke-width:1.05833328"
       d="m 341.3125,105.44168 v 20.90209 c -6.87917,-6.21771 -13.53747,-10.78916 -21.21038,-13.83186 -7.54063,-3.17501 -15.61042,-4.76251 -24.20937,-4.76251 -16.93333,0 -29.89792,5.15938 -38.89375,15.47814 -8.99583,10.31875 -13.49375,25.26772 -13.49375,44.84689 0,19.57918 4.49792,34.52815 13.49375,44.84691 8.99583,10.31875 21.96042,15.47813 38.89375,15.47813 8.59895,0 16.66874,-1.52136 24.20937,-4.56407 7.67291,-3.04271 14.33122,-7.79782 21.21038,-14.14783 v 21.16668 c -7.14374,4.7625 -14.00048,8.26085 -21.80569,10.6421 -7.80521,2.38125 -16.07344,3.57188 -24.80469,3.57188 -22.48958,0 -40.15052,-6.87917 -52.98281,-20.63751 -12.83229,-13.75834 -19.24844,-32.54377 -19.24844,-56.35629 0,-23.81251 6.41615,-42.53179 19.24844,-56.15784 12.83229,-13.758336 30.49323,-20.637503 52.98281,-20.637503 8.86354,0 17.19791,1.19063 25.00312,3.571881 7.9375,2.248956 14.72809,5.828212 21.60726,10.590712 z"
       sodipodi:nodetypes="cccssssscccsssscscc" />
    <path
       inkscape:connector-curvature="0"
       id="path28"
       style="font-style:normal;font-variant:normal;font-weight:bold;font-stretch:normal;font-size:192px;line-height:1.25;font-family:Chandas;-inkscape-font-specification:'Chandas Bold';letter-spacing:0px;word-spacing:0px;fill:#d64737;fill-opacity:1;stroke:none;stroke-width:1.05833328"
       d="m 475.28024,98.819714 v 19.645316 q -11.50938,-5.55625 -21.62969,-8.13594 -10.12031,-2.77812 -19.44687,-2.77812 -16.47031,0 -25.4,6.35 -8.73125,6.35 -8.73125,18.05782 0,9.92188 5.75469,14.88282 5.95312,4.96094 22.62187,8.13594 l 11.90625,2.38125 q 22.62187,4.36563 33.13906,15.08126 10.71563,10.71563 10.71563,28.77346 0,21.6297 -14.48594,32.7422 -14.2875,11.11251 -42.26719,11.11251 -10.51718,0 -22.42343,-2.38125 -11.90625,-2.38125 -24.60625,-7.14376 v -20.63751 q 12.30312,6.74688 24.01093,10.31876 11.70782,3.57187 23.01875,3.57187 17.26407,0 26.59063,-6.74687 9.32656,-6.74688 9.32656,-19.44689 0,-10.71563 -6.74687,-16.8672 -6.74688,-6.15156 -22.02657,-9.32657 l -12.10468,-2.38125 q -22.62188,-4.36562 -32.54375,-13.89063 -9.92188,-9.525 -9.92188,-26.59064 0,-19.64532 13.69219,-30.95627 13.89062,-11.310933 38.29844,-11.310933 10.31875,0 21.03437,1.98438 10.91406,1.785941 22.225,5.556247 z" />
  </g>
  <g
     inkscape:groupmode="layer"
     id="layer4"
     inkscape:label="Layer 3"
     style="display:inline"
     transform="translate(0,-300)">
    <path
       inkscape:tile-y0="183.36504"
       inkscape:tile-x0="298.84734"
       sodipodi:nodetypes="cscscc"
       inkscape:connector-curvature="0"
       id="use4621"
       d="m 341.3125,427.49804 c 0,0 -9.90857,-3.47233 -15.14395,7.72597 -8.11304,17.35353 -9.2018,-15.61002 -9.19766,-15.61256 -0.004,-0.002 1.08462,-32.95281 9.19766,-15.59928 5.23538,11.19831 15.14395,7.87546 15.14395,7.87546 z"
       style="fill:#df684a;fill-opacity:1;stroke:none;stroke-width:0.20635244;stroke-linecap:butt;stroke-linejoin:miter;stroke-miterlimit:4;stroke-dasharray:none;stroke-opacity:1" />
  </g>
  <g
     inkscape:groupmode="layer"
     id="layer3"
     inkscape:label="Layer 4"
     style="display:inline"
     transform="translate(0,-300)">
    <path
       style="fill:#f5d615;fill-opacity:1;stroke:none;stroke-width:0.12057097px;stroke-linecap:butt;stroke-linejoin:miter;stroke-opacity:1"
       d="m 318.44048,399.41486 c 0,0 -6.35229,0.35946 -8.89713,-0.26394 -0.9759,-0.23906 -1.99877,-0.71001 -2.61044,-1.50714 -0.692,-0.90184 -1.03101,-2.16703 -0.88263,-3.29406 0.15737,-1.19539 0.852,-2.39854 1.80856,-3.13252 0.90184,-0.69202 2.16703,-1.03102 3.29405,-0.88265 0.99618,0.13116 1.91546,0.78152 2.61045,1.50714 1.81229,1.8922 4.67714,7.57317 4.67714,7.57317 z"
       id="path71"
       inkscape:connector-curvature="0"
       sodipodi:nodetypes="cssssssc" />
    <path
       style="fill:#f5d615;fill-opacity:1;stroke:none;stroke-width:0.12057097px;stroke-linecap:butt;stroke-linejoin:miter;stroke-opacity:1"
       d="m 316.21995,407.70766 c 0,0 -6.0428,1.99131 -8.66228,2.0478 -1.00452,0.0217 -2.11442,-0.1685 -2.91156,-0.78015 -0.90184,-0.69201 -1.55675,-1.82635 -1.70512,-2.95338 -0.15739,-1.19539 0.20218,-2.53732 0.93617,-3.49387 0.69201,-0.90185 1.82635,-1.55676 2.95337,-1.70514 0.99618,-0.13114 2.05246,0.25914 2.91157,0.78015 2.24028,1.35867 6.47785,6.10459 6.47785,6.10459 z"
       id="path71-7"
       inkscape:connector-curvature="0"
       sodipodi:nodetypes="cssssssc" />
    <path
       style="fill:#f5d615;fill-opacity:1;stroke:none;stroke-width:0.12057097px;stroke-linecap:butt;stroke-linejoin:miter;stroke-opacity:1"
       d="m 315.56377,416.48505 c 0,0 -5.32151,3.48745 -7.83711,4.21999 -0.96468,0.28095 -2.08599,0.38449 -3.01427,0 -1.05022,-0.43502 -1.9764,-1.3612 -2.41141,-2.41143 -0.46142,-1.11392 -0.46142,-2.50319 -10e-6,-3.61712 0.43501,-1.05022 1.3612,-1.97641 2.41141,-2.41142 0.9283,-0.38451 2.0496,-0.28091 3.01428,-10e-6 2.51559,0.73255 7.83711,4.21999 7.83711,4.21999 z"
       id="path71-7-5"
       inkscape:connector-curvature="0"
       sodipodi:nodetypes="cssssssc" />
    <path
       style="fill:#f5d615;fill-opacity:1;stroke:none;stroke-width:0.12057097px;stroke-linecap:butt;stroke-linejoin:miter;stroke-opacity:1"
       d="m 318.17589,437.77061 c 0,0 -6.35229,-0.35946 -8.89713,0.26394 -0.9759,0.23906 -1.99877,0.71001 -2.61044,1.50714 -0.692,0.90184 -1.03101,2.16703 -0.88263,3.29406 0.15737,1.19539 0.852,2.39854 1.80856,3.13252 0.90184,0.69202 2.16703,1.03102 3.29405,0.88265 0.99618,-0.13116 1.91546,-0.78152 2.61045,-1.50714 1.81229,-1.8922 4.67714,-7.57317 4.67714,-7.57317 z"
       id="path71-3"
       inkscape:connector-curvature="0"
       sodipodi:nodetypes="cssssssc" />
    <path
       style="fill:#f5d615;fill-opacity:1;stroke:none;stroke-width:0.12057097px;stroke-linecap:butt;stroke-linejoin:miter;stroke-opacity:1"
       d="m 315.95536,427.36113 c 0,0 -6.0428,-1.99131 -8.66228,-2.0478 -1.00452,-0.0217 -2.11442,0.1685 -2.91156,0.78015 -0.90184,0.69201 -1.55675,1.82635 -1.70512,2.95338 -0.15739,1.19539 0.20218,2.53732 0.93617,3.49387 0.69201,0.90185 1.82635,1.55676 2.95337,1.70514 0.99618,0.13114 2.05246,-0.25914 2.91157,-0.78015 2.24028,-1.35867 6.47785,-6.10459 6.47785,-6.10459 z"
       id="path71-7-56"
       inkscape:connector-curvature="0"
       sodipodi:nodetypes="cssssssc" />
  </g>
</svg>
